<svg xmlns="http://www.w3.org/2000/svg" xmlns:xlink="http://www.w3.org/1999/xlink" width="494" height="203" viewBox="0 0 494 203">
  <defs>
    <clipPath id="clip-path">
      <rect width="494" height="203" fill="none"/>
    </clipPath>
  </defs>
  <g id="Repeat_Grid_2" data-name="Repeat Grid 2" clip-path="url(#clip-path)">
    <g transform="translate(-701 -2849)">
      <circle id="Ellipse_2" data-name="Ellipse 2" cx="5.5" cy="5.5" r="5.5" transform="translate(701 2849)" fill="rgba(179,84,30,0.46)"/>
    </g>
    <g transform="translate(-670 -2849)">
      <circle id="Ellipse_2-2" data-name="Ellipse 2" cx="5.5" cy="5.5" r="5.5" transform="translate(701 2849)" fill="rgba(179,84,30,0.46)"/>
    </g>
    <g transform="translate(-639 -2849)">
      <circle id="Ellipse_2-3" data-name="Ellipse 2" cx="5.5" cy="5.5" r="5.5" transform="translate(701 2849)" fill="rgba(179,84,30,0.46)"/>
    </g>
    <g transform="translate(-608 -2849)">
      <circle id="Ellipse_2-4" data-name="Ellipse 2" cx="5.5" cy="5.5" r="5.5" transform="translate(701 2849)" fill="rgba(179,84,30,0.46)"/>
    </g>
    <g transform="translate(-577 -2849)">
      <circle id="Ellipse_2-5" data-name="Ellipse 2" cx="5.5" cy="5.5" r="5.5" transform="translate(701 2849)" fill="rgba(179,84,30,0.46)"/>
    </g>
    <g transform="translate(-546 -2849)">
      <circle id="Ellipse_2-6" data-name="Ellipse 2" cx="5.5" cy="5.5" r="5.5" transform="translate(701 2849)" fill="rgba(179,84,30,0.46)"/>
    </g>
    <g transform="translate(-515 -2849)">
      <circle id="Ellipse_2-7" data-name="Ellipse 2" cx="5.5" cy="5.5" r="5.5" transform="translate(701 2849)" fill="rgba(179,84,30,0.46)"/>
    </g>
    <g transform="translate(-484 -2849)">
      <circle id="Ellipse_2-8" data-name="Ellipse 2" cx="5.5" cy="5.5" r="5.5" transform="translate(701 2849)" fill="rgba(179,84,30,0.46)"/>
    </g>
    <g transform="translate(-453 -2849)">
      <circle id="Ellipse_2-9" data-name="Ellipse 2" cx="5.5" cy="5.5" r="5.5" transform="translate(701 2849)" fill="rgba(179,84,30,0.46)"/>
    </g>
    <g transform="translate(-422 -2849)">
      <circle id="Ellipse_2-10" data-name="Ellipse 2" cx="5.5" cy="5.5" r="5.5" transform="translate(701 2849)" fill="rgba(179,84,30,0.46)"/>
    </g>
    <g transform="translate(-391 -2849)">
      <circle id="Ellipse_2-11" data-name="Ellipse 2" cx="5.5" cy="5.5" r="5.5" transform="translate(701 2849)" fill="rgba(179,84,30,0.46)"/>
    </g>
    <g transform="translate(-360 -2849)">
      <circle id="Ellipse_2-12" data-name="Ellipse 2" cx="5.5" cy="5.5" r="5.5" transform="translate(701 2849)" fill="rgba(179,84,30,0.46)"/>
    </g>
    <g transform="translate(-329 -2849)">
      <circle id="Ellipse_2-13" data-name="Ellipse 2" cx="5.5" cy="5.5" r="5.5" transform="translate(701 2849)" fill="rgba(179,84,30,0.46)"/>
    </g>
    <g transform="translate(-298 -2849)">
      <circle id="Ellipse_2-14" data-name="Ellipse 2" cx="5.5" cy="5.5" r="5.5" transform="translate(701 2849)" fill="rgba(179,84,30,0.46)"/>
    </g>
    <g transform="translate(-267 -2849)">
      <circle id="Ellipse_2-15" data-name="Ellipse 2" cx="5.5" cy="5.5" r="5.5" transform="translate(701 2849)" fill="rgba(179,84,30,0.46)"/>
    </g>
    <g transform="translate(-236 -2849)">
      <circle id="Ellipse_2-16" data-name="Ellipse 2" cx="5.5" cy="5.5" r="5.5" transform="translate(701 2849)" fill="rgba(179,84,30,0.46)"/>
    </g>
    <g transform="translate(-701 -2818)">
      <circle id="Ellipse_2-17" data-name="Ellipse 2" cx="5.5" cy="5.5" r="5.5" transform="translate(701 2849)" fill="rgba(179,84,30,0.46)"/>
    </g>
    <g transform="translate(-670 -2818)">
      <circle id="Ellipse_2-18" data-name="Ellipse 2" cx="5.5" cy="5.5" r="5.5" transform="translate(701 2849)" fill="rgba(179,84,30,0.46)"/>
    </g>
    <g transform="translate(-639 -2818)">
      <circle id="Ellipse_2-19" data-name="Ellipse 2" cx="5.5" cy="5.5" r="5.5" transform="translate(701 2849)" fill="rgba(179,84,30,0.46)"/>
    </g>
    <g transform="translate(-608 -2818)">
      <circle id="Ellipse_2-20" data-name="Ellipse 2" cx="5.5" cy="5.5" r="5.5" transform="translate(701 2849)" fill="rgba(179,84,30,0.46)"/>
    </g>
    <g transform="translate(-577 -2818)">
      <circle id="Ellipse_2-21" data-name="Ellipse 2" cx="5.5" cy="5.5" r="5.5" transform="translate(701 2849)" fill="rgba(179,84,30,0.46)"/>
    </g>
    <g transform="translate(-546 -2818)">
      <circle id="Ellipse_2-22" data-name="Ellipse 2" cx="5.5" cy="5.5" r="5.5" transform="translate(701 2849)" fill="rgba(179,84,30,0.46)"/>
    </g>
    <g transform="translate(-515 -2818)">
      <circle id="Ellipse_2-23" data-name="Ellipse 2" cx="5.5" cy="5.5" r="5.5" transform="translate(701 2849)" fill="rgba(179,84,30,0.46)"/>
    </g>
    <g transform="translate(-484 -2818)">
      <circle id="Ellipse_2-24" data-name="Ellipse 2" cx="5.5" cy="5.5" r="5.5" transform="translate(701 2849)" fill="rgba(179,84,30,0.46)"/>
    </g>
    <g transform="translate(-453 -2818)">
      <circle id="Ellipse_2-25" data-name="Ellipse 2" cx="5.5" cy="5.5" r="5.5" transform="translate(701 2849)" fill="rgba(179,84,30,0.46)"/>
    </g>
    <g transform="translate(-422 -2818)">
      <circle id="Ellipse_2-26" data-name="Ellipse 2" cx="5.5" cy="5.5" r="5.5" transform="translate(701 2849)" fill="rgba(179,84,30,0.46)"/>
    </g>
    <g transform="translate(-391 -2818)">
      <circle id="Ellipse_2-27" data-name="Ellipse 2" cx="5.5" cy="5.5" r="5.5" transform="translate(701 2849)" fill="rgba(179,84,30,0.46)"/>
    </g>
    <g transform="translate(-360 -2818)">
      <circle id="Ellipse_2-28" data-name="Ellipse 2" cx="5.5" cy="5.5" r="5.5" transform="translate(701 2849)" fill="rgba(179,84,30,0.46)"/>
    </g>
    <g transform="translate(-329 -2818)">
      <circle id="Ellipse_2-29" data-name="Ellipse 2" cx="5.5" cy="5.5" r="5.5" transform="translate(701 2849)" fill="rgba(179,84,30,0.46)"/>
    </g>
    <g transform="translate(-298 -2818)">
      <circle id="Ellipse_2-30" data-name="Ellipse 2" cx="5.5" cy="5.5" r="5.5" transform="translate(701 2849)" fill="rgba(179,84,30,0.46)"/>
    </g>
    <g transform="translate(-267 -2818)">
      <circle id="Ellipse_2-31" data-name="Ellipse 2" cx="5.5" cy="5.5" r="5.5" transform="translate(701 2849)" fill="rgba(179,84,30,0.46)"/>
    </g>
    <g transform="translate(-236 -2818)">
      <circle id="Ellipse_2-32" data-name="Ellipse 2" cx="5.5" cy="5.5" r="5.5" transform="translate(701 2849)" fill="rgba(179,84,30,0.46)"/>
    </g>
    <g transform="translate(-701 -2787)">
      <circle id="Ellipse_2-33" data-name="Ellipse 2" cx="5.5" cy="5.5" r="5.5" transform="translate(701 2849)" fill="rgba(179,84,30,0.46)"/>
    </g>
    <g transform="translate(-670 -2787)">
      <circle id="Ellipse_2-34" data-name="Ellipse 2" cx="5.5" cy="5.5" r="5.5" transform="translate(701 2849)" fill="rgba(179,84,30,0.46)"/>
    </g>
    <g transform="translate(-639 -2787)">
      <circle id="Ellipse_2-35" data-name="Ellipse 2" cx="5.5" cy="5.5" r="5.5" transform="translate(701 2849)" fill="rgba(179,84,30,0.46)"/>
    </g>
    <g transform="translate(-608 -2787)">
      <circle id="Ellipse_2-36" data-name="Ellipse 2" cx="5.5" cy="5.5" r="5.5" transform="translate(701 2849)" fill="rgba(179,84,30,0.46)"/>
    </g>
    <g transform="translate(-577 -2787)">
      <circle id="Ellipse_2-37" data-name="Ellipse 2" cx="5.5" cy="5.5" r="5.5" transform="translate(701 2849)" fill="rgba(179,84,30,0.46)"/>
    </g>
    <g transform="translate(-546 -2787)">
      <circle id="Ellipse_2-38" data-name="Ellipse 2" cx="5.5" cy="5.5" r="5.5" transform="translate(701 2849)" fill="rgba(179,84,30,0.46)"/>
    </g>
    <g transform="translate(-515 -2787)">
      <circle id="Ellipse_2-39" data-name="Ellipse 2" cx="5.5" cy="5.5" r="5.5" transform="translate(701 2849)" fill="rgba(179,84,30,0.46)"/>
    </g>
    <g transform="translate(-484 -2787)">
      <circle id="Ellipse_2-40" data-name="Ellipse 2" cx="5.5" cy="5.5" r="5.5" transform="translate(701 2849)" fill="rgba(179,84,30,0.46)"/>
    </g>
    <g transform="translate(-453 -2787)">
      <circle id="Ellipse_2-41" data-name="Ellipse 2" cx="5.5" cy="5.5" r="5.5" transform="translate(701 2849)" fill="rgba(179,84,30,0.46)"/>
    </g>
    <g transform="translate(-422 -2787)">
      <circle id="Ellipse_2-42" data-name="Ellipse 2" cx="5.5" cy="5.5" r="5.5" transform="translate(701 2849)" fill="rgba(179,84,30,0.46)"/>
    </g>
    <g transform="translate(-391 -2787)">
      <circle id="Ellipse_2-43" data-name="Ellipse 2" cx="5.5" cy="5.5" r="5.5" transform="translate(701 2849)" fill="rgba(179,84,30,0.46)"/>
    </g>
    <g transform="translate(-360 -2787)">
      <circle id="Ellipse_2-44" data-name="Ellipse 2" cx="5.5" cy="5.5" r="5.5" transform="translate(701 2849)" fill="rgba(179,84,30,0.46)"/>
    </g>
    <g transform="translate(-329 -2787)">
      <circle id="Ellipse_2-45" data-name="Ellipse 2" cx="5.5" cy="5.5" r="5.5" transform="translate(701 2849)" fill="rgba(179,84,30,0.46)"/>
    </g>
    <g transform="translate(-298 -2787)">
      <circle id="Ellipse_2-46" data-name="Ellipse 2" cx="5.5" cy="5.5" r="5.5" transform="translate(701 2849)" fill="rgba(179,84,30,0.46)"/>
    </g>
    <g transform="translate(-267 -2787)">
      <circle id="Ellipse_2-47" data-name="Ellipse 2" cx="5.5" cy="5.5" r="5.5" transform="translate(701 2849)" fill="rgba(179,84,30,0.46)"/>
    </g>
    <g transform="translate(-236 -2787)">
      <circle id="Ellipse_2-48" data-name="Ellipse 2" cx="5.5" cy="5.5" r="5.5" transform="translate(701 2849)" fill="rgba(179,84,30,0.46)"/>
    </g>
    <g transform="translate(-701 -2756)">
      <circle id="Ellipse_2-49" data-name="Ellipse 2" cx="5.5" cy="5.5" r="5.5" transform="translate(701 2849)" fill="rgba(179,84,30,0.46)"/>
    </g>
    <g transform="translate(-670 -2756)">
      <circle id="Ellipse_2-50" data-name="Ellipse 2" cx="5.5" cy="5.5" r="5.5" transform="translate(701 2849)" fill="rgba(179,84,30,0.46)"/>
    </g>
    <g transform="translate(-639 -2756)">
      <circle id="Ellipse_2-51" data-name="Ellipse 2" cx="5.5" cy="5.5" r="5.5" transform="translate(701 2849)" fill="rgba(179,84,30,0.46)"/>
    </g>
    <g transform="translate(-608 -2756)">
      <circle id="Ellipse_2-52" data-name="Ellipse 2" cx="5.5" cy="5.5" r="5.5" transform="translate(701 2849)" fill="rgba(179,84,30,0.46)"/>
    </g>
    <g transform="translate(-577 -2756)">
      <circle id="Ellipse_2-53" data-name="Ellipse 2" cx="5.5" cy="5.5" r="5.5" transform="translate(701 2849)" fill="rgba(179,84,30,0.46)"/>
    </g>
    <g transform="translate(-546 -2756)">
      <circle id="Ellipse_2-54" data-name="Ellipse 2" cx="5.5" cy="5.5" r="5.5" transform="translate(701 2849)" fill="rgba(179,84,30,0.46)"/>
    </g>
    <g transform="translate(-515 -2756)">
      <circle id="Ellipse_2-55" data-name="Ellipse 2" cx="5.5" cy="5.5" r="5.5" transform="translate(701 2849)" fill="rgba(179,84,30,0.46)"/>
    </g>
    <g transform="translate(-484 -2756)">
      <circle id="Ellipse_2-56" data-name="Ellipse 2" cx="5.5" cy="5.5" r="5.5" transform="translate(701 2849)" fill="rgba(179,84,30,0.46)"/>
    </g>
    <g transform="translate(-453 -2756)">
      <circle id="Ellipse_2-57" data-name="Ellipse 2" cx="5.5" cy="5.5" r="5.5" transform="translate(701 2849)" fill="rgba(179,84,30,0.46)"/>
    </g>
    <g transform="translate(-422 -2756)">
      <circle id="Ellipse_2-58" data-name="Ellipse 2" cx="5.5" cy="5.5" r="5.5" transform="translate(701 2849)" fill="rgba(179,84,30,0.46)"/>
    </g>
    <g transform="translate(-391 -2756)">
      <circle id="Ellipse_2-59" data-name="Ellipse 2" cx="5.5" cy="5.5" r="5.5" transform="translate(701 2849)" fill="rgba(179,84,30,0.46)"/>
    </g>
    <g transform="translate(-360 -2756)">
      <circle id="Ellipse_2-60" data-name="Ellipse 2" cx="5.5" cy="5.5" r="5.5" transform="translate(701 2849)" fill="rgba(179,84,30,0.46)"/>
    </g>
    <g transform="translate(-329 -2756)">
      <circle id="Ellipse_2-61" data-name="Ellipse 2" cx="5.5" cy="5.5" r="5.5" transform="translate(701 2849)" fill="rgba(179,84,30,0.46)"/>
    </g>
    <g transform="translate(-298 -2756)">
      <circle id="Ellipse_2-62" data-name="Ellipse 2" cx="5.5" cy="5.5" r="5.5" transform="translate(701 2849)" fill="rgba(179,84,30,0.46)"/>
    </g>
    <g transform="translate(-267 -2756)">
      <circle id="Ellipse_2-63" data-name="Ellipse 2" cx="5.5" cy="5.5" r="5.5" transform="translate(701 2849)" fill="rgba(179,84,30,0.46)"/>
    </g>
    <g transform="translate(-236 -2756)">
      <circle id="Ellipse_2-64" data-name="Ellipse 2" cx="5.5" cy="5.5" r="5.5" transform="translate(701 2849)" fill="rgba(179,84,30,0.46)"/>
    </g>
    <g transform="translate(-701 -2725)">
      <circle id="Ellipse_2-65" data-name="Ellipse 2" cx="5.5" cy="5.5" r="5.5" transform="translate(701 2849)" fill="rgba(179,84,30,0.46)"/>
    </g>
    <g transform="translate(-670 -2725)">
      <circle id="Ellipse_2-66" data-name="Ellipse 2" cx="5.5" cy="5.5" r="5.5" transform="translate(701 2849)" fill="rgba(179,84,30,0.46)"/>
    </g>
    <g transform="translate(-639 -2725)">
      <circle id="Ellipse_2-67" data-name="Ellipse 2" cx="5.5" cy="5.5" r="5.5" transform="translate(701 2849)" fill="rgba(179,84,30,0.46)"/>
    </g>
    <g transform="translate(-608 -2725)">
      <circle id="Ellipse_2-68" data-name="Ellipse 2" cx="5.5" cy="5.5" r="5.5" transform="translate(701 2849)" fill="rgba(179,84,30,0.46)"/>
    </g>
    <g transform="translate(-577 -2725)">
      <circle id="Ellipse_2-69" data-name="Ellipse 2" cx="5.5" cy="5.5" r="5.5" transform="translate(701 2849)" fill="rgba(179,84,30,0.46)"/>
    </g>
    <g transform="translate(-546 -2725)">
      <circle id="Ellipse_2-70" data-name="Ellipse 2" cx="5.5" cy="5.5" r="5.5" transform="translate(701 2849)" fill="rgba(179,84,30,0.46)"/>
    </g>
    <g transform="translate(-515 -2725)">
      <circle id="Ellipse_2-71" data-name="Ellipse 2" cx="5.5" cy="5.5" r="5.5" transform="translate(701 2849)" fill="rgba(179,84,30,0.46)"/>
    </g>
    <g transform="translate(-484 -2725)">
      <circle id="Ellipse_2-72" data-name="Ellipse 2" cx="5.5" cy="5.5" r="5.5" transform="translate(701 2849)" fill="rgba(179,84,30,0.46)"/>
    </g>
    <g transform="translate(-453 -2725)">
      <circle id="Ellipse_2-73" data-name="Ellipse 2" cx="5.5" cy="5.5" r="5.5" transform="translate(701 2849)" fill="rgba(179,84,30,0.46)"/>
    </g>
    <g transform="translate(-422 -2725)">
      <circle id="Ellipse_2-74" data-name="Ellipse 2" cx="5.5" cy="5.5" r="5.5" transform="translate(701 2849)" fill="rgba(179,84,30,0.46)"/>
    </g>
    <g transform="translate(-391 -2725)">
      <circle id="Ellipse_2-75" data-name="Ellipse 2" cx="5.5" cy="5.5" r="5.5" transform="translate(701 2849)" fill="rgba(179,84,30,0.46)"/>
    </g>
    <g transform="translate(-360 -2725)">
      <circle id="Ellipse_2-76" data-name="Ellipse 2" cx="5.5" cy="5.5" r="5.5" transform="translate(701 2849)" fill="rgba(179,84,30,0.46)"/>
    </g>
    <g transform="translate(-329 -2725)">
      <circle id="Ellipse_2-77" data-name="Ellipse 2" cx="5.5" cy="5.5" r="5.5" transform="translate(701 2849)" fill="rgba(179,84,30,0.46)"/>
    </g>
    <g transform="translate(-298 -2725)">
      <circle id="Ellipse_2-78" data-name="Ellipse 2" cx="5.5" cy="5.5" r="5.5" transform="translate(701 2849)" fill="rgba(179,84,30,0.46)"/>
    </g>
    <g transform="translate(-267 -2725)">
      <circle id="Ellipse_2-79" data-name="Ellipse 2" cx="5.5" cy="5.5" r="5.5" transform="translate(701 2849)" fill="rgba(179,84,30,0.46)"/>
    </g>
    <g transform="translate(-236 -2725)">
      <circle id="Ellipse_2-80" data-name="Ellipse 2" cx="5.5" cy="5.5" r="5.5" transform="translate(701 2849)" fill="rgba(179,84,30,0.46)"/>
    </g>
    <g transform="translate(-701 -2694)">
      <circle id="Ellipse_2-81" data-name="Ellipse 2" cx="5.5" cy="5.5" r="5.5" transform="translate(701 2849)" fill="rgba(179,84,30,0.46)"/>
    </g>
    <g transform="translate(-670 -2694)">
      <circle id="Ellipse_2-82" data-name="Ellipse 2" cx="5.5" cy="5.5" r="5.5" transform="translate(701 2849)" fill="rgba(179,84,30,0.46)"/>
    </g>
    <g transform="translate(-639 -2694)">
      <circle id="Ellipse_2-83" data-name="Ellipse 2" cx="5.5" cy="5.5" r="5.5" transform="translate(701 2849)" fill="rgba(179,84,30,0.46)"/>
    </g>
    <g transform="translate(-608 -2694)">
      <circle id="Ellipse_2-84" data-name="Ellipse 2" cx="5.5" cy="5.5" r="5.5" transform="translate(701 2849)" fill="rgba(179,84,30,0.46)"/>
    </g>
    <g transform="translate(-577 -2694)">
      <circle id="Ellipse_2-85" data-name="Ellipse 2" cx="5.5" cy="5.5" r="5.5" transform="translate(701 2849)" fill="rgba(179,84,30,0.46)"/>
    </g>
    <g transform="translate(-546 -2694)">
      <circle id="Ellipse_2-86" data-name="Ellipse 2" cx="5.5" cy="5.5" r="5.5" transform="translate(701 2849)" fill="rgba(179,84,30,0.46)"/>
    </g>
    <g transform="translate(-515 -2694)">
      <circle id="Ellipse_2-87" data-name="Ellipse 2" cx="5.5" cy="5.5" r="5.5" transform="translate(701 2849)" fill="rgba(179,84,30,0.46)"/>
    </g>
    <g transform="translate(-484 -2694)">
      <circle id="Ellipse_2-88" data-name="Ellipse 2" cx="5.5" cy="5.5" r="5.5" transform="translate(701 2849)" fill="rgba(179,84,30,0.46)"/>
    </g>
    <g transform="translate(-453 -2694)">
      <circle id="Ellipse_2-89" data-name="Ellipse 2" cx="5.5" cy="5.5" r="5.5" transform="translate(701 2849)" fill="rgba(179,84,30,0.46)"/>
    </g>
    <g transform="translate(-422 -2694)">
      <circle id="Ellipse_2-90" data-name="Ellipse 2" cx="5.5" cy="5.5" r="5.5" transform="translate(701 2849)" fill="rgba(179,84,30,0.46)"/>
    </g>
    <g transform="translate(-391 -2694)">
      <circle id="Ellipse_2-91" data-name="Ellipse 2" cx="5.5" cy="5.5" r="5.5" transform="translate(701 2849)" fill="rgba(179,84,30,0.46)"/>
    </g>
    <g transform="translate(-360 -2694)">
      <circle id="Ellipse_2-92" data-name="Ellipse 2" cx="5.5" cy="5.5" r="5.5" transform="translate(701 2849)" fill="rgba(179,84,30,0.46)"/>
    </g>
    <g transform="translate(-329 -2694)">
      <circle id="Ellipse_2-93" data-name="Ellipse 2" cx="5.5" cy="5.5" r="5.5" transform="translate(701 2849)" fill="rgba(179,84,30,0.46)"/>
    </g>
    <g transform="translate(-298 -2694)">
      <circle id="Ellipse_2-94" data-name="Ellipse 2" cx="5.5" cy="5.5" r="5.5" transform="translate(701 2849)" fill="rgba(179,84,30,0.46)"/>
    </g>
    <g transform="translate(-267 -2694)">
      <circle id="Ellipse_2-95" data-name="Ellipse 2" cx="5.5" cy="5.5" r="5.5" transform="translate(701 2849)" fill="rgba(179,84,30,0.46)"/>
    </g>
    <g transform="translate(-236 -2694)">
      <circle id="Ellipse_2-96" data-name="Ellipse 2" cx="5.5" cy="5.5" r="5.5" transform="translate(701 2849)" fill="rgba(179,84,30,0.46)"/>
    </g>
    <g transform="translate(-701 -2663)">
      <circle id="Ellipse_2-97" data-name="Ellipse 2" cx="5.5" cy="5.5" r="5.5" transform="translate(701 2849)" fill="rgba(179,84,30,0.46)"/>
    </g>
    <g transform="translate(-670 -2663)">
      <circle id="Ellipse_2-98" data-name="Ellipse 2" cx="5.5" cy="5.5" r="5.5" transform="translate(701 2849)" fill="rgba(179,84,30,0.46)"/>
    </g>
    <g transform="translate(-639 -2663)">
      <circle id="Ellipse_2-99" data-name="Ellipse 2" cx="5.5" cy="5.5" r="5.5" transform="translate(701 2849)" fill="rgba(179,84,30,0.46)"/>
    </g>
    <g transform="translate(-608 -2663)">
      <circle id="Ellipse_2-100" data-name="Ellipse 2" cx="5.5" cy="5.5" r="5.5" transform="translate(701 2849)" fill="rgba(179,84,30,0.46)"/>
    </g>
    <g transform="translate(-577 -2663)">
      <circle id="Ellipse_2-101" data-name="Ellipse 2" cx="5.5" cy="5.5" r="5.5" transform="translate(701 2849)" fill="rgba(179,84,30,0.46)"/>
    </g>
    <g transform="translate(-546 -2663)">
      <circle id="Ellipse_2-102" data-name="Ellipse 2" cx="5.5" cy="5.5" r="5.5" transform="translate(701 2849)" fill="rgba(179,84,30,0.46)"/>
    </g>
    <g transform="translate(-515 -2663)">
      <circle id="Ellipse_2-103" data-name="Ellipse 2" cx="5.5" cy="5.5" r="5.5" transform="translate(701 2849)" fill="rgba(179,84,30,0.46)"/>
    </g>
    <g transform="translate(-484 -2663)">
      <circle id="Ellipse_2-104" data-name="Ellipse 2" cx="5.5" cy="5.5" r="5.5" transform="translate(701 2849)" fill="rgba(179,84,30,0.46)"/>
    </g>
    <g transform="translate(-453 -2663)">
      <circle id="Ellipse_2-105" data-name="Ellipse 2" cx="5.5" cy="5.5" r="5.5" transform="translate(701 2849)" fill="rgba(179,84,30,0.46)"/>
    </g>
    <g transform="translate(-422 -2663)">
      <circle id="Ellipse_2-106" data-name="Ellipse 2" cx="5.5" cy="5.5" r="5.5" transform="translate(701 2849)" fill="rgba(179,84,30,0.46)"/>
    </g>
    <g transform="translate(-391 -2663)">
      <circle id="Ellipse_2-107" data-name="Ellipse 2" cx="5.5" cy="5.5" r="5.5" transform="translate(701 2849)" fill="rgba(179,84,30,0.46)"/>
    </g>
    <g transform="translate(-360 -2663)">
      <circle id="Ellipse_2-108" data-name="Ellipse 2" cx="5.5" cy="5.5" r="5.5" transform="translate(701 2849)" fill="rgba(179,84,30,0.46)"/>
    </g>
    <g transform="translate(-329 -2663)">
      <circle id="Ellipse_2-109" data-name="Ellipse 2" cx="5.5" cy="5.5" r="5.5" transform="translate(701 2849)" fill="rgba(179,84,30,0.46)"/>
    </g>
    <g transform="translate(-298 -2663)">
      <circle id="Ellipse_2-110" data-name="Ellipse 2" cx="5.5" cy="5.5" r="5.5" transform="translate(701 2849)" fill="rgba(179,84,30,0.46)"/>
    </g>
    <g transform="translate(-267 -2663)">
      <circle id="Ellipse_2-111" data-name="Ellipse 2" cx="5.5" cy="5.5" r="5.5" transform="translate(701 2849)" fill="rgba(179,84,30,0.46)"/>
    </g>
    <g transform="translate(-236 -2663)">
      <circle id="Ellipse_2-112" data-name="Ellipse 2" cx="5.5" cy="5.5" r="5.5" transform="translate(701 2849)" fill="rgba(179,84,30,0.46)"/>
    </g>
  </g>
</svg>
