<svg xmlns="http://www.w3.org/2000/svg" xmlns:xlink="http://www.w3.org/1999/xlink" width="514" height="546" viewBox="0 0 514 546">
  <defs>
    <clipPath id="clip-path">
      <rect width="514" height="546" fill="none"/>
    </clipPath>
  </defs>
  <g id="Repeat_Grid_6" data-name="Repeat Grid 6" clip-path="url(#clip-path)">
    <g transform="translate(-701 -2849)">
      <circle id="Ellipse_2" data-name="Ellipse 2" cx="5.5" cy="5.5" r="5.5" transform="translate(701 2849)" fill="rgba(179,84,30,0.57)"/>
    </g>
    <g transform="translate(-670 -2849)">
      <circle id="Ellipse_2-2" data-name="Ellipse 2" cx="5.5" cy="5.5" r="5.5" transform="translate(701 2849)" fill="rgba(179,84,30,0.57)"/>
    </g>
    <g transform="translate(-639 -2849)">
      <circle id="Ellipse_2-3" data-name="Ellipse 2" cx="5.5" cy="5.5" r="5.5" transform="translate(701 2849)" fill="rgba(179,84,30,0.57)"/>
    </g>
    <g transform="translate(-608 -2849)">
      <circle id="Ellipse_2-4" data-name="Ellipse 2" cx="5.5" cy="5.5" r="5.5" transform="translate(701 2849)" fill="rgba(179,84,30,0.57)"/>
    </g>
    <g transform="translate(-577 -2849)">
      <circle id="Ellipse_2-5" data-name="Ellipse 2" cx="5.5" cy="5.5" r="5.5" transform="translate(701 2849)" fill="rgba(179,84,30,0.57)"/>
    </g>
    <g transform="translate(-546 -2849)">
      <circle id="Ellipse_2-6" data-name="Ellipse 2" cx="5.5" cy="5.5" r="5.5" transform="translate(701 2849)" fill="rgba(179,84,30,0.57)"/>
    </g>
    <g transform="translate(-515 -2849)">
      <circle id="Ellipse_2-7" data-name="Ellipse 2" cx="5.5" cy="5.5" r="5.5" transform="translate(701 2849)" fill="rgba(179,84,30,0.57)"/>
    </g>
    <g transform="translate(-484 -2849)">
      <circle id="Ellipse_2-8" data-name="Ellipse 2" cx="5.5" cy="5.5" r="5.5" transform="translate(701 2849)" fill="rgba(179,84,30,0.57)"/>
    </g>
    <g transform="translate(-453 -2849)">
      <circle id="Ellipse_2-9" data-name="Ellipse 2" cx="5.5" cy="5.5" r="5.5" transform="translate(701 2849)" fill="rgba(179,84,30,0.57)"/>
    </g>
    <g transform="translate(-422 -2849)">
      <circle id="Ellipse_2-10" data-name="Ellipse 2" cx="5.5" cy="5.5" r="5.5" transform="translate(701 2849)" fill="rgba(179,84,30,0.57)"/>
    </g>
    <g transform="translate(-391 -2849)">
      <circle id="Ellipse_2-11" data-name="Ellipse 2" cx="5.5" cy="5.5" r="5.5" transform="translate(701 2849)" fill="rgba(179,84,30,0.57)"/>
    </g>
    <g transform="translate(-360 -2849)">
      <circle id="Ellipse_2-12" data-name="Ellipse 2" cx="5.5" cy="5.5" r="5.5" transform="translate(701 2849)" fill="rgba(179,84,30,0.57)"/>
    </g>
    <g transform="translate(-329 -2849)">
      <circle id="Ellipse_2-13" data-name="Ellipse 2" cx="5.5" cy="5.5" r="5.5" transform="translate(701 2849)" fill="rgba(179,84,30,0.57)"/>
    </g>
    <g transform="translate(-298 -2849)">
      <circle id="Ellipse_2-14" data-name="Ellipse 2" cx="5.5" cy="5.5" r="5.5" transform="translate(701 2849)" fill="rgba(179,84,30,0.57)"/>
    </g>
    <g transform="translate(-267 -2849)">
      <circle id="Ellipse_2-15" data-name="Ellipse 2" cx="5.5" cy="5.5" r="5.5" transform="translate(701 2849)" fill="rgba(179,84,30,0.57)"/>
    </g>
    <g transform="translate(-236 -2849)">
      <circle id="Ellipse_2-16" data-name="Ellipse 2" cx="5.5" cy="5.5" r="5.5" transform="translate(701 2849)" fill="rgba(179,84,30,0.57)"/>
    </g>
    <g transform="translate(-205 -2849)">
      <circle id="Ellipse_2-17" data-name="Ellipse 2" cx="5.5" cy="5.5" r="5.5" transform="translate(701 2849)" fill="rgba(179,84,30,0.57)"/>
    </g>
    <g transform="translate(-701 -2808)">
      <circle id="Ellipse_2-18" data-name="Ellipse 2" cx="5.5" cy="5.5" r="5.5" transform="translate(701 2849)" fill="rgba(179,84,30,0.57)"/>
    </g>
    <g transform="translate(-670 -2808)">
      <circle id="Ellipse_2-19" data-name="Ellipse 2" cx="5.5" cy="5.5" r="5.5" transform="translate(701 2849)" fill="rgba(179,84,30,0.57)"/>
    </g>
    <g transform="translate(-639 -2808)">
      <circle id="Ellipse_2-20" data-name="Ellipse 2" cx="5.5" cy="5.5" r="5.5" transform="translate(701 2849)" fill="rgba(179,84,30,0.57)"/>
    </g>
    <g transform="translate(-608 -2808)">
      <circle id="Ellipse_2-21" data-name="Ellipse 2" cx="5.5" cy="5.5" r="5.5" transform="translate(701 2849)" fill="rgba(179,84,30,0.57)"/>
    </g>
    <g transform="translate(-577 -2808)">
      <circle id="Ellipse_2-22" data-name="Ellipse 2" cx="5.5" cy="5.5" r="5.5" transform="translate(701 2849)" fill="rgba(179,84,30,0.57)"/>
    </g>
    <g transform="translate(-546 -2808)">
      <circle id="Ellipse_2-23" data-name="Ellipse 2" cx="5.5" cy="5.5" r="5.5" transform="translate(701 2849)" fill="rgba(179,84,30,0.57)"/>
    </g>
    <g transform="translate(-515 -2808)">
      <circle id="Ellipse_2-24" data-name="Ellipse 2" cx="5.5" cy="5.5" r="5.5" transform="translate(701 2849)" fill="rgba(179,84,30,0.57)"/>
    </g>
    <g transform="translate(-484 -2808)">
      <circle id="Ellipse_2-25" data-name="Ellipse 2" cx="5.5" cy="5.5" r="5.5" transform="translate(701 2849)" fill="rgba(179,84,30,0.57)"/>
    </g>
    <g transform="translate(-453 -2808)">
      <circle id="Ellipse_2-26" data-name="Ellipse 2" cx="5.5" cy="5.5" r="5.5" transform="translate(701 2849)" fill="rgba(179,84,30,0.57)"/>
    </g>
    <g transform="translate(-422 -2808)">
      <circle id="Ellipse_2-27" data-name="Ellipse 2" cx="5.5" cy="5.5" r="5.5" transform="translate(701 2849)" fill="rgba(179,84,30,0.57)"/>
    </g>
    <g transform="translate(-391 -2808)">
      <circle id="Ellipse_2-28" data-name="Ellipse 2" cx="5.5" cy="5.5" r="5.5" transform="translate(701 2849)" fill="rgba(179,84,30,0.57)"/>
    </g>
    <g transform="translate(-360 -2808)">
      <circle id="Ellipse_2-29" data-name="Ellipse 2" cx="5.5" cy="5.5" r="5.5" transform="translate(701 2849)" fill="rgba(179,84,30,0.57)"/>
    </g>
    <g transform="translate(-329 -2808)">
      <circle id="Ellipse_2-30" data-name="Ellipse 2" cx="5.5" cy="5.5" r="5.5" transform="translate(701 2849)" fill="rgba(179,84,30,0.57)"/>
    </g>
    <g transform="translate(-298 -2808)">
      <circle id="Ellipse_2-31" data-name="Ellipse 2" cx="5.5" cy="5.5" r="5.5" transform="translate(701 2849)" fill="rgba(179,84,30,0.57)"/>
    </g>
    <g transform="translate(-267 -2808)">
      <circle id="Ellipse_2-32" data-name="Ellipse 2" cx="5.5" cy="5.5" r="5.5" transform="translate(701 2849)" fill="rgba(179,84,30,0.57)"/>
    </g>
    <g transform="translate(-236 -2808)">
      <circle id="Ellipse_2-33" data-name="Ellipse 2" cx="5.5" cy="5.5" r="5.5" transform="translate(701 2849)" fill="rgba(179,84,30,0.57)"/>
    </g>
    <g transform="translate(-205 -2808)">
      <circle id="Ellipse_2-34" data-name="Ellipse 2" cx="5.5" cy="5.5" r="5.5" transform="translate(701 2849)" fill="rgba(179,84,30,0.57)"/>
    </g>
    <g transform="translate(-701 -2767)">
      <circle id="Ellipse_2-35" data-name="Ellipse 2" cx="5.5" cy="5.5" r="5.5" transform="translate(701 2849)" fill="rgba(179,84,30,0.57)"/>
    </g>
    <g transform="translate(-670 -2767)">
      <circle id="Ellipse_2-36" data-name="Ellipse 2" cx="5.5" cy="5.5" r="5.5" transform="translate(701 2849)" fill="rgba(179,84,30,0.57)"/>
    </g>
    <g transform="translate(-639 -2767)">
      <circle id="Ellipse_2-37" data-name="Ellipse 2" cx="5.5" cy="5.5" r="5.5" transform="translate(701 2849)" fill="rgba(179,84,30,0.57)"/>
    </g>
    <g transform="translate(-608 -2767)">
      <circle id="Ellipse_2-38" data-name="Ellipse 2" cx="5.5" cy="5.5" r="5.5" transform="translate(701 2849)" fill="rgba(179,84,30,0.57)"/>
    </g>
    <g transform="translate(-577 -2767)">
      <circle id="Ellipse_2-39" data-name="Ellipse 2" cx="5.5" cy="5.5" r="5.5" transform="translate(701 2849)" fill="rgba(179,84,30,0.57)"/>
    </g>
    <g transform="translate(-546 -2767)">
      <circle id="Ellipse_2-40" data-name="Ellipse 2" cx="5.5" cy="5.5" r="5.5" transform="translate(701 2849)" fill="rgba(179,84,30,0.57)"/>
    </g>
    <g transform="translate(-515 -2767)">
      <circle id="Ellipse_2-41" data-name="Ellipse 2" cx="5.5" cy="5.5" r="5.5" transform="translate(701 2849)" fill="rgba(179,84,30,0.57)"/>
    </g>
    <g transform="translate(-484 -2767)">
      <circle id="Ellipse_2-42" data-name="Ellipse 2" cx="5.5" cy="5.5" r="5.5" transform="translate(701 2849)" fill="rgba(179,84,30,0.57)"/>
    </g>
    <g transform="translate(-453 -2767)">
      <circle id="Ellipse_2-43" data-name="Ellipse 2" cx="5.5" cy="5.5" r="5.5" transform="translate(701 2849)" fill="rgba(179,84,30,0.57)"/>
    </g>
    <g transform="translate(-422 -2767)">
      <circle id="Ellipse_2-44" data-name="Ellipse 2" cx="5.5" cy="5.5" r="5.5" transform="translate(701 2849)" fill="rgba(179,84,30,0.57)"/>
    </g>
    <g transform="translate(-391 -2767)">
      <circle id="Ellipse_2-45" data-name="Ellipse 2" cx="5.5" cy="5.5" r="5.5" transform="translate(701 2849)" fill="rgba(179,84,30,0.57)"/>
    </g>
    <g transform="translate(-360 -2767)">
      <circle id="Ellipse_2-46" data-name="Ellipse 2" cx="5.5" cy="5.5" r="5.5" transform="translate(701 2849)" fill="rgba(179,84,30,0.57)"/>
    </g>
    <g transform="translate(-329 -2767)">
      <circle id="Ellipse_2-47" data-name="Ellipse 2" cx="5.5" cy="5.5" r="5.5" transform="translate(701 2849)" fill="rgba(179,84,30,0.57)"/>
    </g>
    <g transform="translate(-298 -2767)">
      <circle id="Ellipse_2-48" data-name="Ellipse 2" cx="5.5" cy="5.5" r="5.5" transform="translate(701 2849)" fill="rgba(179,84,30,0.57)"/>
    </g>
    <g transform="translate(-267 -2767)">
      <circle id="Ellipse_2-49" data-name="Ellipse 2" cx="5.5" cy="5.5" r="5.5" transform="translate(701 2849)" fill="rgba(179,84,30,0.57)"/>
    </g>
    <g transform="translate(-236 -2767)">
      <circle id="Ellipse_2-50" data-name="Ellipse 2" cx="5.5" cy="5.5" r="5.5" transform="translate(701 2849)" fill="rgba(179,84,30,0.57)"/>
    </g>
    <g transform="translate(-205 -2767)">
      <circle id="Ellipse_2-51" data-name="Ellipse 2" cx="5.5" cy="5.5" r="5.5" transform="translate(701 2849)" fill="rgba(179,84,30,0.57)"/>
    </g>
    <g transform="translate(-701 -2726)">
      <circle id="Ellipse_2-52" data-name="Ellipse 2" cx="5.5" cy="5.5" r="5.5" transform="translate(701 2849)" fill="rgba(179,84,30,0.57)"/>
    </g>
    <g transform="translate(-670 -2726)">
      <circle id="Ellipse_2-53" data-name="Ellipse 2" cx="5.5" cy="5.5" r="5.5" transform="translate(701 2849)" fill="rgba(179,84,30,0.57)"/>
    </g>
    <g transform="translate(-639 -2726)">
      <circle id="Ellipse_2-54" data-name="Ellipse 2" cx="5.5" cy="5.5" r="5.5" transform="translate(701 2849)" fill="rgba(179,84,30,0.57)"/>
    </g>
    <g transform="translate(-608 -2726)">
      <circle id="Ellipse_2-55" data-name="Ellipse 2" cx="5.5" cy="5.5" r="5.5" transform="translate(701 2849)" fill="rgba(179,84,30,0.57)"/>
    </g>
    <g transform="translate(-577 -2726)">
      <circle id="Ellipse_2-56" data-name="Ellipse 2" cx="5.5" cy="5.5" r="5.5" transform="translate(701 2849)" fill="rgba(179,84,30,0.57)"/>
    </g>
    <g transform="translate(-546 -2726)">
      <circle id="Ellipse_2-57" data-name="Ellipse 2" cx="5.5" cy="5.5" r="5.5" transform="translate(701 2849)" fill="rgba(179,84,30,0.57)"/>
    </g>
    <g transform="translate(-515 -2726)">
      <circle id="Ellipse_2-58" data-name="Ellipse 2" cx="5.5" cy="5.5" r="5.5" transform="translate(701 2849)" fill="rgba(179,84,30,0.57)"/>
    </g>
    <g transform="translate(-484 -2726)">
      <circle id="Ellipse_2-59" data-name="Ellipse 2" cx="5.5" cy="5.5" r="5.5" transform="translate(701 2849)" fill="rgba(179,84,30,0.57)"/>
    </g>
    <g transform="translate(-453 -2726)">
      <circle id="Ellipse_2-60" data-name="Ellipse 2" cx="5.5" cy="5.5" r="5.5" transform="translate(701 2849)" fill="rgba(179,84,30,0.57)"/>
    </g>
    <g transform="translate(-422 -2726)">
      <circle id="Ellipse_2-61" data-name="Ellipse 2" cx="5.5" cy="5.5" r="5.5" transform="translate(701 2849)" fill="rgba(179,84,30,0.57)"/>
    </g>
    <g transform="translate(-391 -2726)">
      <circle id="Ellipse_2-62" data-name="Ellipse 2" cx="5.5" cy="5.5" r="5.5" transform="translate(701 2849)" fill="rgba(179,84,30,0.57)"/>
    </g>
    <g transform="translate(-360 -2726)">
      <circle id="Ellipse_2-63" data-name="Ellipse 2" cx="5.5" cy="5.5" r="5.5" transform="translate(701 2849)" fill="rgba(179,84,30,0.57)"/>
    </g>
    <g transform="translate(-329 -2726)">
      <circle id="Ellipse_2-64" data-name="Ellipse 2" cx="5.5" cy="5.5" r="5.5" transform="translate(701 2849)" fill="rgba(179,84,30,0.57)"/>
    </g>
    <g transform="translate(-298 -2726)">
      <circle id="Ellipse_2-65" data-name="Ellipse 2" cx="5.5" cy="5.5" r="5.5" transform="translate(701 2849)" fill="rgba(179,84,30,0.57)"/>
    </g>
    <g transform="translate(-267 -2726)">
      <circle id="Ellipse_2-66" data-name="Ellipse 2" cx="5.5" cy="5.5" r="5.5" transform="translate(701 2849)" fill="rgba(179,84,30,0.57)"/>
    </g>
    <g transform="translate(-236 -2726)">
      <circle id="Ellipse_2-67" data-name="Ellipse 2" cx="5.5" cy="5.5" r="5.5" transform="translate(701 2849)" fill="rgba(179,84,30,0.57)"/>
    </g>
    <g transform="translate(-205 -2726)">
      <circle id="Ellipse_2-68" data-name="Ellipse 2" cx="5.5" cy="5.5" r="5.5" transform="translate(701 2849)" fill="rgba(179,84,30,0.57)"/>
    </g>
    <g transform="translate(-701 -2685)">
      <circle id="Ellipse_2-69" data-name="Ellipse 2" cx="5.5" cy="5.5" r="5.5" transform="translate(701 2849)" fill="rgba(179,84,30,0.57)"/>
    </g>
    <g transform="translate(-670 -2685)">
      <circle id="Ellipse_2-70" data-name="Ellipse 2" cx="5.5" cy="5.5" r="5.5" transform="translate(701 2849)" fill="rgba(179,84,30,0.57)"/>
    </g>
    <g transform="translate(-639 -2685)">
      <circle id="Ellipse_2-71" data-name="Ellipse 2" cx="5.5" cy="5.5" r="5.5" transform="translate(701 2849)" fill="rgba(179,84,30,0.57)"/>
    </g>
    <g transform="translate(-608 -2685)">
      <circle id="Ellipse_2-72" data-name="Ellipse 2" cx="5.5" cy="5.5" r="5.5" transform="translate(701 2849)" fill="rgba(179,84,30,0.57)"/>
    </g>
    <g transform="translate(-577 -2685)">
      <circle id="Ellipse_2-73" data-name="Ellipse 2" cx="5.5" cy="5.5" r="5.5" transform="translate(701 2849)" fill="rgba(179,84,30,0.57)"/>
    </g>
    <g transform="translate(-546 -2685)">
      <circle id="Ellipse_2-74" data-name="Ellipse 2" cx="5.5" cy="5.5" r="5.5" transform="translate(701 2849)" fill="rgba(179,84,30,0.57)"/>
    </g>
    <g transform="translate(-515 -2685)">
      <circle id="Ellipse_2-75" data-name="Ellipse 2" cx="5.5" cy="5.5" r="5.5" transform="translate(701 2849)" fill="rgba(179,84,30,0.57)"/>
    </g>
    <g transform="translate(-484 -2685)">
      <circle id="Ellipse_2-76" data-name="Ellipse 2" cx="5.5" cy="5.5" r="5.5" transform="translate(701 2849)" fill="rgba(179,84,30,0.57)"/>
    </g>
    <g transform="translate(-453 -2685)">
      <circle id="Ellipse_2-77" data-name="Ellipse 2" cx="5.5" cy="5.5" r="5.5" transform="translate(701 2849)" fill="rgba(179,84,30,0.57)"/>
    </g>
    <g transform="translate(-422 -2685)">
      <circle id="Ellipse_2-78" data-name="Ellipse 2" cx="5.5" cy="5.5" r="5.5" transform="translate(701 2849)" fill="rgba(179,84,30,0.57)"/>
    </g>
    <g transform="translate(-391 -2685)">
      <circle id="Ellipse_2-79" data-name="Ellipse 2" cx="5.5" cy="5.5" r="5.5" transform="translate(701 2849)" fill="rgba(179,84,30,0.57)"/>
    </g>
    <g transform="translate(-360 -2685)">
      <circle id="Ellipse_2-80" data-name="Ellipse 2" cx="5.5" cy="5.5" r="5.5" transform="translate(701 2849)" fill="rgba(179,84,30,0.57)"/>
    </g>
    <g transform="translate(-329 -2685)">
      <circle id="Ellipse_2-81" data-name="Ellipse 2" cx="5.5" cy="5.5" r="5.5" transform="translate(701 2849)" fill="rgba(179,84,30,0.57)"/>
    </g>
    <g transform="translate(-298 -2685)">
      <circle id="Ellipse_2-82" data-name="Ellipse 2" cx="5.5" cy="5.5" r="5.5" transform="translate(701 2849)" fill="rgba(179,84,30,0.57)"/>
    </g>
    <g transform="translate(-267 -2685)">
      <circle id="Ellipse_2-83" data-name="Ellipse 2" cx="5.5" cy="5.5" r="5.5" transform="translate(701 2849)" fill="rgba(179,84,30,0.57)"/>
    </g>
    <g transform="translate(-236 -2685)">
      <circle id="Ellipse_2-84" data-name="Ellipse 2" cx="5.5" cy="5.5" r="5.5" transform="translate(701 2849)" fill="rgba(179,84,30,0.57)"/>
    </g>
    <g transform="translate(-205 -2685)">
      <circle id="Ellipse_2-85" data-name="Ellipse 2" cx="5.5" cy="5.5" r="5.5" transform="translate(701 2849)" fill="rgba(179,84,30,0.57)"/>
    </g>
    <g transform="translate(-701 -2644)">
      <circle id="Ellipse_2-86" data-name="Ellipse 2" cx="5.5" cy="5.5" r="5.5" transform="translate(701 2849)" fill="rgba(179,84,30,0.57)"/>
    </g>
    <g transform="translate(-670 -2644)">
      <circle id="Ellipse_2-87" data-name="Ellipse 2" cx="5.5" cy="5.5" r="5.5" transform="translate(701 2849)" fill="rgba(179,84,30,0.57)"/>
    </g>
    <g transform="translate(-639 -2644)">
      <circle id="Ellipse_2-88" data-name="Ellipse 2" cx="5.5" cy="5.5" r="5.5" transform="translate(701 2849)" fill="rgba(179,84,30,0.57)"/>
    </g>
    <g transform="translate(-608 -2644)">
      <circle id="Ellipse_2-89" data-name="Ellipse 2" cx="5.5" cy="5.5" r="5.5" transform="translate(701 2849)" fill="rgba(179,84,30,0.57)"/>
    </g>
    <g transform="translate(-577 -2644)">
      <circle id="Ellipse_2-90" data-name="Ellipse 2" cx="5.5" cy="5.5" r="5.5" transform="translate(701 2849)" fill="rgba(179,84,30,0.57)"/>
    </g>
    <g transform="translate(-546 -2644)">
      <circle id="Ellipse_2-91" data-name="Ellipse 2" cx="5.5" cy="5.5" r="5.5" transform="translate(701 2849)" fill="rgba(179,84,30,0.57)"/>
    </g>
    <g transform="translate(-515 -2644)">
      <circle id="Ellipse_2-92" data-name="Ellipse 2" cx="5.5" cy="5.5" r="5.5" transform="translate(701 2849)" fill="rgba(179,84,30,0.57)"/>
    </g>
    <g transform="translate(-484 -2644)">
      <circle id="Ellipse_2-93" data-name="Ellipse 2" cx="5.5" cy="5.5" r="5.5" transform="translate(701 2849)" fill="rgba(179,84,30,0.57)"/>
    </g>
    <g transform="translate(-453 -2644)">
      <circle id="Ellipse_2-94" data-name="Ellipse 2" cx="5.5" cy="5.5" r="5.5" transform="translate(701 2849)" fill="rgba(179,84,30,0.57)"/>
    </g>
    <g transform="translate(-422 -2644)">
      <circle id="Ellipse_2-95" data-name="Ellipse 2" cx="5.5" cy="5.5" r="5.5" transform="translate(701 2849)" fill="rgba(179,84,30,0.57)"/>
    </g>
    <g transform="translate(-391 -2644)">
      <circle id="Ellipse_2-96" data-name="Ellipse 2" cx="5.5" cy="5.5" r="5.5" transform="translate(701 2849)" fill="rgba(179,84,30,0.57)"/>
    </g>
    <g transform="translate(-360 -2644)">
      <circle id="Ellipse_2-97" data-name="Ellipse 2" cx="5.5" cy="5.5" r="5.5" transform="translate(701 2849)" fill="rgba(179,84,30,0.57)"/>
    </g>
    <g transform="translate(-329 -2644)">
      <circle id="Ellipse_2-98" data-name="Ellipse 2" cx="5.5" cy="5.5" r="5.5" transform="translate(701 2849)" fill="rgba(179,84,30,0.57)"/>
    </g>
    <g transform="translate(-298 -2644)">
      <circle id="Ellipse_2-99" data-name="Ellipse 2" cx="5.5" cy="5.5" r="5.5" transform="translate(701 2849)" fill="rgba(179,84,30,0.57)"/>
    </g>
    <g transform="translate(-267 -2644)">
      <circle id="Ellipse_2-100" data-name="Ellipse 2" cx="5.5" cy="5.5" r="5.5" transform="translate(701 2849)" fill="rgba(179,84,30,0.57)"/>
    </g>
    <g transform="translate(-236 -2644)">
      <circle id="Ellipse_2-101" data-name="Ellipse 2" cx="5.5" cy="5.5" r="5.5" transform="translate(701 2849)" fill="rgba(179,84,30,0.57)"/>
    </g>
    <g transform="translate(-205 -2644)">
      <circle id="Ellipse_2-102" data-name="Ellipse 2" cx="5.5" cy="5.5" r="5.5" transform="translate(701 2849)" fill="rgba(179,84,30,0.57)"/>
    </g>
    <g transform="translate(-701 -2603)">
      <circle id="Ellipse_2-103" data-name="Ellipse 2" cx="5.5" cy="5.5" r="5.5" transform="translate(701 2849)" fill="rgba(179,84,30,0.57)"/>
    </g>
    <g transform="translate(-670 -2603)">
      <circle id="Ellipse_2-104" data-name="Ellipse 2" cx="5.5" cy="5.5" r="5.5" transform="translate(701 2849)" fill="rgba(179,84,30,0.57)"/>
    </g>
    <g transform="translate(-639 -2603)">
      <circle id="Ellipse_2-105" data-name="Ellipse 2" cx="5.5" cy="5.5" r="5.5" transform="translate(701 2849)" fill="rgba(179,84,30,0.57)"/>
    </g>
    <g transform="translate(-608 -2603)">
      <circle id="Ellipse_2-106" data-name="Ellipse 2" cx="5.5" cy="5.5" r="5.5" transform="translate(701 2849)" fill="rgba(179,84,30,0.57)"/>
    </g>
    <g transform="translate(-577 -2603)">
      <circle id="Ellipse_2-107" data-name="Ellipse 2" cx="5.5" cy="5.5" r="5.5" transform="translate(701 2849)" fill="rgba(179,84,30,0.57)"/>
    </g>
    <g transform="translate(-546 -2603)">
      <circle id="Ellipse_2-108" data-name="Ellipse 2" cx="5.5" cy="5.5" r="5.5" transform="translate(701 2849)" fill="rgba(179,84,30,0.57)"/>
    </g>
    <g transform="translate(-515 -2603)">
      <circle id="Ellipse_2-109" data-name="Ellipse 2" cx="5.5" cy="5.5" r="5.5" transform="translate(701 2849)" fill="rgba(179,84,30,0.57)"/>
    </g>
    <g transform="translate(-484 -2603)">
      <circle id="Ellipse_2-110" data-name="Ellipse 2" cx="5.5" cy="5.5" r="5.5" transform="translate(701 2849)" fill="rgba(179,84,30,0.57)"/>
    </g>
    <g transform="translate(-453 -2603)">
      <circle id="Ellipse_2-111" data-name="Ellipse 2" cx="5.5" cy="5.5" r="5.5" transform="translate(701 2849)" fill="rgba(179,84,30,0.57)"/>
    </g>
    <g transform="translate(-422 -2603)">
      <circle id="Ellipse_2-112" data-name="Ellipse 2" cx="5.5" cy="5.5" r="5.5" transform="translate(701 2849)" fill="rgba(179,84,30,0.57)"/>
    </g>
    <g transform="translate(-391 -2603)">
      <circle id="Ellipse_2-113" data-name="Ellipse 2" cx="5.5" cy="5.5" r="5.5" transform="translate(701 2849)" fill="rgba(179,84,30,0.57)"/>
    </g>
    <g transform="translate(-360 -2603)">
      <circle id="Ellipse_2-114" data-name="Ellipse 2" cx="5.5" cy="5.5" r="5.5" transform="translate(701 2849)" fill="rgba(179,84,30,0.57)"/>
    </g>
    <g transform="translate(-329 -2603)">
      <circle id="Ellipse_2-115" data-name="Ellipse 2" cx="5.5" cy="5.5" r="5.5" transform="translate(701 2849)" fill="rgba(179,84,30,0.57)"/>
    </g>
    <g transform="translate(-298 -2603)">
      <circle id="Ellipse_2-116" data-name="Ellipse 2" cx="5.5" cy="5.5" r="5.5" transform="translate(701 2849)" fill="rgba(179,84,30,0.57)"/>
    </g>
    <g transform="translate(-267 -2603)">
      <circle id="Ellipse_2-117" data-name="Ellipse 2" cx="5.5" cy="5.5" r="5.5" transform="translate(701 2849)" fill="rgba(179,84,30,0.57)"/>
    </g>
    <g transform="translate(-236 -2603)">
      <circle id="Ellipse_2-118" data-name="Ellipse 2" cx="5.5" cy="5.5" r="5.5" transform="translate(701 2849)" fill="rgba(179,84,30,0.57)"/>
    </g>
    <g transform="translate(-205 -2603)">
      <circle id="Ellipse_2-119" data-name="Ellipse 2" cx="5.5" cy="5.5" r="5.5" transform="translate(701 2849)" fill="rgba(179,84,30,0.57)"/>
    </g>
    <g transform="translate(-701 -2562)">
      <circle id="Ellipse_2-120" data-name="Ellipse 2" cx="5.5" cy="5.5" r="5.5" transform="translate(701 2849)" fill="rgba(179,84,30,0.57)"/>
    </g>
    <g transform="translate(-670 -2562)">
      <circle id="Ellipse_2-121" data-name="Ellipse 2" cx="5.5" cy="5.5" r="5.5" transform="translate(701 2849)" fill="rgba(179,84,30,0.57)"/>
    </g>
    <g transform="translate(-639 -2562)">
      <circle id="Ellipse_2-122" data-name="Ellipse 2" cx="5.5" cy="5.5" r="5.5" transform="translate(701 2849)" fill="rgba(179,84,30,0.57)"/>
    </g>
    <g transform="translate(-608 -2562)">
      <circle id="Ellipse_2-123" data-name="Ellipse 2" cx="5.5" cy="5.5" r="5.5" transform="translate(701 2849)" fill="rgba(179,84,30,0.57)"/>
    </g>
    <g transform="translate(-577 -2562)">
      <circle id="Ellipse_2-124" data-name="Ellipse 2" cx="5.5" cy="5.5" r="5.5" transform="translate(701 2849)" fill="rgba(179,84,30,0.57)"/>
    </g>
    <g transform="translate(-546 -2562)">
      <circle id="Ellipse_2-125" data-name="Ellipse 2" cx="5.5" cy="5.5" r="5.5" transform="translate(701 2849)" fill="rgba(179,84,30,0.57)"/>
    </g>
    <g transform="translate(-515 -2562)">
      <circle id="Ellipse_2-126" data-name="Ellipse 2" cx="5.5" cy="5.5" r="5.5" transform="translate(701 2849)" fill="rgba(179,84,30,0.57)"/>
    </g>
    <g transform="translate(-484 -2562)">
      <circle id="Ellipse_2-127" data-name="Ellipse 2" cx="5.5" cy="5.5" r="5.5" transform="translate(701 2849)" fill="rgba(179,84,30,0.57)"/>
    </g>
    <g transform="translate(-453 -2562)">
      <circle id="Ellipse_2-128" data-name="Ellipse 2" cx="5.5" cy="5.5" r="5.5" transform="translate(701 2849)" fill="rgba(179,84,30,0.57)"/>
    </g>
    <g transform="translate(-422 -2562)">
      <circle id="Ellipse_2-129" data-name="Ellipse 2" cx="5.5" cy="5.5" r="5.5" transform="translate(701 2849)" fill="rgba(179,84,30,0.57)"/>
    </g>
    <g transform="translate(-391 -2562)">
      <circle id="Ellipse_2-130" data-name="Ellipse 2" cx="5.5" cy="5.5" r="5.5" transform="translate(701 2849)" fill="rgba(179,84,30,0.57)"/>
    </g>
    <g transform="translate(-360 -2562)">
      <circle id="Ellipse_2-131" data-name="Ellipse 2" cx="5.5" cy="5.5" r="5.5" transform="translate(701 2849)" fill="rgba(179,84,30,0.57)"/>
    </g>
    <g transform="translate(-329 -2562)">
      <circle id="Ellipse_2-132" data-name="Ellipse 2" cx="5.5" cy="5.5" r="5.5" transform="translate(701 2849)" fill="rgba(179,84,30,0.57)"/>
    </g>
    <g transform="translate(-298 -2562)">
      <circle id="Ellipse_2-133" data-name="Ellipse 2" cx="5.5" cy="5.5" r="5.5" transform="translate(701 2849)" fill="rgba(179,84,30,0.57)"/>
    </g>
    <g transform="translate(-267 -2562)">
      <circle id="Ellipse_2-134" data-name="Ellipse 2" cx="5.5" cy="5.5" r="5.5" transform="translate(701 2849)" fill="rgba(179,84,30,0.57)"/>
    </g>
    <g transform="translate(-236 -2562)">
      <circle id="Ellipse_2-135" data-name="Ellipse 2" cx="5.5" cy="5.5" r="5.5" transform="translate(701 2849)" fill="rgba(179,84,30,0.57)"/>
    </g>
    <g transform="translate(-205 -2562)">
      <circle id="Ellipse_2-136" data-name="Ellipse 2" cx="5.5" cy="5.5" r="5.5" transform="translate(701 2849)" fill="rgba(179,84,30,0.57)"/>
    </g>
    <g transform="translate(-701 -2521)">
      <circle id="Ellipse_2-137" data-name="Ellipse 2" cx="5.5" cy="5.5" r="5.5" transform="translate(701 2849)" fill="rgba(179,84,30,0.57)"/>
    </g>
    <g transform="translate(-670 -2521)">
      <circle id="Ellipse_2-138" data-name="Ellipse 2" cx="5.5" cy="5.5" r="5.5" transform="translate(701 2849)" fill="rgba(179,84,30,0.57)"/>
    </g>
    <g transform="translate(-639 -2521)">
      <circle id="Ellipse_2-139" data-name="Ellipse 2" cx="5.5" cy="5.5" r="5.5" transform="translate(701 2849)" fill="rgba(179,84,30,0.57)"/>
    </g>
    <g transform="translate(-608 -2521)">
      <circle id="Ellipse_2-140" data-name="Ellipse 2" cx="5.5" cy="5.5" r="5.5" transform="translate(701 2849)" fill="rgba(179,84,30,0.57)"/>
    </g>
    <g transform="translate(-577 -2521)">
      <circle id="Ellipse_2-141" data-name="Ellipse 2" cx="5.5" cy="5.5" r="5.5" transform="translate(701 2849)" fill="rgba(179,84,30,0.57)"/>
    </g>
    <g transform="translate(-546 -2521)">
      <circle id="Ellipse_2-142" data-name="Ellipse 2" cx="5.5" cy="5.5" r="5.5" transform="translate(701 2849)" fill="rgba(179,84,30,0.57)"/>
    </g>
    <g transform="translate(-515 -2521)">
      <circle id="Ellipse_2-143" data-name="Ellipse 2" cx="5.5" cy="5.5" r="5.5" transform="translate(701 2849)" fill="rgba(179,84,30,0.57)"/>
    </g>
    <g transform="translate(-484 -2521)">
      <circle id="Ellipse_2-144" data-name="Ellipse 2" cx="5.5" cy="5.5" r="5.5" transform="translate(701 2849)" fill="rgba(179,84,30,0.57)"/>
    </g>
    <g transform="translate(-453 -2521)">
      <circle id="Ellipse_2-145" data-name="Ellipse 2" cx="5.5" cy="5.5" r="5.5" transform="translate(701 2849)" fill="rgba(179,84,30,0.57)"/>
    </g>
    <g transform="translate(-422 -2521)">
      <circle id="Ellipse_2-146" data-name="Ellipse 2" cx="5.5" cy="5.5" r="5.5" transform="translate(701 2849)" fill="rgba(179,84,30,0.57)"/>
    </g>
    <g transform="translate(-391 -2521)">
      <circle id="Ellipse_2-147" data-name="Ellipse 2" cx="5.5" cy="5.5" r="5.5" transform="translate(701 2849)" fill="rgba(179,84,30,0.57)"/>
    </g>
    <g transform="translate(-360 -2521)">
      <circle id="Ellipse_2-148" data-name="Ellipse 2" cx="5.5" cy="5.5" r="5.5" transform="translate(701 2849)" fill="rgba(179,84,30,0.57)"/>
    </g>
    <g transform="translate(-329 -2521)">
      <circle id="Ellipse_2-149" data-name="Ellipse 2" cx="5.5" cy="5.5" r="5.5" transform="translate(701 2849)" fill="rgba(179,84,30,0.57)"/>
    </g>
    <g transform="translate(-298 -2521)">
      <circle id="Ellipse_2-150" data-name="Ellipse 2" cx="5.5" cy="5.5" r="5.5" transform="translate(701 2849)" fill="rgba(179,84,30,0.57)"/>
    </g>
    <g transform="translate(-267 -2521)">
      <circle id="Ellipse_2-151" data-name="Ellipse 2" cx="5.5" cy="5.5" r="5.5" transform="translate(701 2849)" fill="rgba(179,84,30,0.57)"/>
    </g>
    <g transform="translate(-236 -2521)">
      <circle id="Ellipse_2-152" data-name="Ellipse 2" cx="5.5" cy="5.5" r="5.5" transform="translate(701 2849)" fill="rgba(179,84,30,0.57)"/>
    </g>
    <g transform="translate(-205 -2521)">
      <circle id="Ellipse_2-153" data-name="Ellipse 2" cx="5.5" cy="5.5" r="5.5" transform="translate(701 2849)" fill="rgba(179,84,30,0.57)"/>
    </g>
    <g transform="translate(-701 -2480)">
      <circle id="Ellipse_2-154" data-name="Ellipse 2" cx="5.5" cy="5.5" r="5.5" transform="translate(701 2849)" fill="rgba(179,84,30,0.57)"/>
    </g>
    <g transform="translate(-670 -2480)">
      <circle id="Ellipse_2-155" data-name="Ellipse 2" cx="5.5" cy="5.5" r="5.5" transform="translate(701 2849)" fill="rgba(179,84,30,0.57)"/>
    </g>
    <g transform="translate(-639 -2480)">
      <circle id="Ellipse_2-156" data-name="Ellipse 2" cx="5.5" cy="5.5" r="5.5" transform="translate(701 2849)" fill="rgba(179,84,30,0.57)"/>
    </g>
    <g transform="translate(-608 -2480)">
      <circle id="Ellipse_2-157" data-name="Ellipse 2" cx="5.5" cy="5.5" r="5.5" transform="translate(701 2849)" fill="rgba(179,84,30,0.57)"/>
    </g>
    <g transform="translate(-577 -2480)">
      <circle id="Ellipse_2-158" data-name="Ellipse 2" cx="5.5" cy="5.5" r="5.5" transform="translate(701 2849)" fill="rgba(179,84,30,0.57)"/>
    </g>
    <g transform="translate(-546 -2480)">
      <circle id="Ellipse_2-159" data-name="Ellipse 2" cx="5.5" cy="5.5" r="5.5" transform="translate(701 2849)" fill="rgba(179,84,30,0.57)"/>
    </g>
    <g transform="translate(-515 -2480)">
      <circle id="Ellipse_2-160" data-name="Ellipse 2" cx="5.5" cy="5.5" r="5.5" transform="translate(701 2849)" fill="rgba(179,84,30,0.57)"/>
    </g>
    <g transform="translate(-484 -2480)">
      <circle id="Ellipse_2-161" data-name="Ellipse 2" cx="5.5" cy="5.5" r="5.5" transform="translate(701 2849)" fill="rgba(179,84,30,0.57)"/>
    </g>
    <g transform="translate(-453 -2480)">
      <circle id="Ellipse_2-162" data-name="Ellipse 2" cx="5.5" cy="5.5" r="5.5" transform="translate(701 2849)" fill="rgba(179,84,30,0.57)"/>
    </g>
    <g transform="translate(-422 -2480)">
      <circle id="Ellipse_2-163" data-name="Ellipse 2" cx="5.5" cy="5.5" r="5.5" transform="translate(701 2849)" fill="rgba(179,84,30,0.57)"/>
    </g>
    <g transform="translate(-391 -2480)">
      <circle id="Ellipse_2-164" data-name="Ellipse 2" cx="5.5" cy="5.5" r="5.5" transform="translate(701 2849)" fill="rgba(179,84,30,0.57)"/>
    </g>
    <g transform="translate(-360 -2480)">
      <circle id="Ellipse_2-165" data-name="Ellipse 2" cx="5.5" cy="5.5" r="5.5" transform="translate(701 2849)" fill="rgba(179,84,30,0.57)"/>
    </g>
    <g transform="translate(-329 -2480)">
      <circle id="Ellipse_2-166" data-name="Ellipse 2" cx="5.5" cy="5.5" r="5.5" transform="translate(701 2849)" fill="rgba(179,84,30,0.57)"/>
    </g>
    <g transform="translate(-298 -2480)">
      <circle id="Ellipse_2-167" data-name="Ellipse 2" cx="5.5" cy="5.5" r="5.5" transform="translate(701 2849)" fill="rgba(179,84,30,0.57)"/>
    </g>
    <g transform="translate(-267 -2480)">
      <circle id="Ellipse_2-168" data-name="Ellipse 2" cx="5.5" cy="5.5" r="5.5" transform="translate(701 2849)" fill="rgba(179,84,30,0.57)"/>
    </g>
    <g transform="translate(-236 -2480)">
      <circle id="Ellipse_2-169" data-name="Ellipse 2" cx="5.5" cy="5.5" r="5.5" transform="translate(701 2849)" fill="rgba(179,84,30,0.57)"/>
    </g>
    <g transform="translate(-205 -2480)">
      <circle id="Ellipse_2-170" data-name="Ellipse 2" cx="5.5" cy="5.5" r="5.5" transform="translate(701 2849)" fill="rgba(179,84,30,0.57)"/>
    </g>
    <g transform="translate(-701 -2439)">
      <circle id="Ellipse_2-171" data-name="Ellipse 2" cx="5.5" cy="5.5" r="5.5" transform="translate(701 2849)" fill="rgba(179,84,30,0.57)"/>
    </g>
    <g transform="translate(-670 -2439)">
      <circle id="Ellipse_2-172" data-name="Ellipse 2" cx="5.5" cy="5.5" r="5.5" transform="translate(701 2849)" fill="rgba(179,84,30,0.57)"/>
    </g>
    <g transform="translate(-639 -2439)">
      <circle id="Ellipse_2-173" data-name="Ellipse 2" cx="5.5" cy="5.5" r="5.5" transform="translate(701 2849)" fill="rgba(179,84,30,0.57)"/>
    </g>
    <g transform="translate(-608 -2439)">
      <circle id="Ellipse_2-174" data-name="Ellipse 2" cx="5.5" cy="5.5" r="5.5" transform="translate(701 2849)" fill="rgba(179,84,30,0.57)"/>
    </g>
    <g transform="translate(-577 -2439)">
      <circle id="Ellipse_2-175" data-name="Ellipse 2" cx="5.5" cy="5.5" r="5.5" transform="translate(701 2849)" fill="rgba(179,84,30,0.57)"/>
    </g>
    <g transform="translate(-546 -2439)">
      <circle id="Ellipse_2-176" data-name="Ellipse 2" cx="5.5" cy="5.5" r="5.5" transform="translate(701 2849)" fill="rgba(179,84,30,0.57)"/>
    </g>
    <g transform="translate(-515 -2439)">
      <circle id="Ellipse_2-177" data-name="Ellipse 2" cx="5.5" cy="5.5" r="5.5" transform="translate(701 2849)" fill="rgba(179,84,30,0.57)"/>
    </g>
    <g transform="translate(-484 -2439)">
      <circle id="Ellipse_2-178" data-name="Ellipse 2" cx="5.5" cy="5.5" r="5.5" transform="translate(701 2849)" fill="rgba(179,84,30,0.57)"/>
    </g>
    <g transform="translate(-453 -2439)">
      <circle id="Ellipse_2-179" data-name="Ellipse 2" cx="5.5" cy="5.5" r="5.5" transform="translate(701 2849)" fill="rgba(179,84,30,0.57)"/>
    </g>
    <g transform="translate(-422 -2439)">
      <circle id="Ellipse_2-180" data-name="Ellipse 2" cx="5.5" cy="5.5" r="5.5" transform="translate(701 2849)" fill="rgba(179,84,30,0.57)"/>
    </g>
    <g transform="translate(-391 -2439)">
      <circle id="Ellipse_2-181" data-name="Ellipse 2" cx="5.5" cy="5.5" r="5.5" transform="translate(701 2849)" fill="rgba(179,84,30,0.57)"/>
    </g>
    <g transform="translate(-360 -2439)">
      <circle id="Ellipse_2-182" data-name="Ellipse 2" cx="5.5" cy="5.5" r="5.5" transform="translate(701 2849)" fill="rgba(179,84,30,0.57)"/>
    </g>
    <g transform="translate(-329 -2439)">
      <circle id="Ellipse_2-183" data-name="Ellipse 2" cx="5.5" cy="5.5" r="5.5" transform="translate(701 2849)" fill="rgba(179,84,30,0.57)"/>
    </g>
    <g transform="translate(-298 -2439)">
      <circle id="Ellipse_2-184" data-name="Ellipse 2" cx="5.5" cy="5.5" r="5.5" transform="translate(701 2849)" fill="rgba(179,84,30,0.57)"/>
    </g>
    <g transform="translate(-267 -2439)">
      <circle id="Ellipse_2-185" data-name="Ellipse 2" cx="5.5" cy="5.5" r="5.5" transform="translate(701 2849)" fill="rgba(179,84,30,0.57)"/>
    </g>
    <g transform="translate(-236 -2439)">
      <circle id="Ellipse_2-186" data-name="Ellipse 2" cx="5.5" cy="5.5" r="5.5" transform="translate(701 2849)" fill="rgba(179,84,30,0.57)"/>
    </g>
    <g transform="translate(-205 -2439)">
      <circle id="Ellipse_2-187" data-name="Ellipse 2" cx="5.5" cy="5.5" r="5.5" transform="translate(701 2849)" fill="rgba(179,84,30,0.57)"/>
    </g>
    <g transform="translate(-701 -2398)">
      <circle id="Ellipse_2-188" data-name="Ellipse 2" cx="5.5" cy="5.5" r="5.5" transform="translate(701 2849)" fill="rgba(179,84,30,0.57)"/>
    </g>
    <g transform="translate(-670 -2398)">
      <circle id="Ellipse_2-189" data-name="Ellipse 2" cx="5.5" cy="5.5" r="5.5" transform="translate(701 2849)" fill="rgba(179,84,30,0.57)"/>
    </g>
    <g transform="translate(-639 -2398)">
      <circle id="Ellipse_2-190" data-name="Ellipse 2" cx="5.5" cy="5.5" r="5.5" transform="translate(701 2849)" fill="rgba(179,84,30,0.57)"/>
    </g>
    <g transform="translate(-608 -2398)">
      <circle id="Ellipse_2-191" data-name="Ellipse 2" cx="5.5" cy="5.5" r="5.5" transform="translate(701 2849)" fill="rgba(179,84,30,0.57)"/>
    </g>
    <g transform="translate(-577 -2398)">
      <circle id="Ellipse_2-192" data-name="Ellipse 2" cx="5.5" cy="5.5" r="5.5" transform="translate(701 2849)" fill="rgba(179,84,30,0.57)"/>
    </g>
    <g transform="translate(-546 -2398)">
      <circle id="Ellipse_2-193" data-name="Ellipse 2" cx="5.5" cy="5.5" r="5.5" transform="translate(701 2849)" fill="rgba(179,84,30,0.57)"/>
    </g>
    <g transform="translate(-515 -2398)">
      <circle id="Ellipse_2-194" data-name="Ellipse 2" cx="5.5" cy="5.5" r="5.5" transform="translate(701 2849)" fill="rgba(179,84,30,0.57)"/>
    </g>
    <g transform="translate(-484 -2398)">
      <circle id="Ellipse_2-195" data-name="Ellipse 2" cx="5.5" cy="5.5" r="5.5" transform="translate(701 2849)" fill="rgba(179,84,30,0.57)"/>
    </g>
    <g transform="translate(-453 -2398)">
      <circle id="Ellipse_2-196" data-name="Ellipse 2" cx="5.5" cy="5.5" r="5.5" transform="translate(701 2849)" fill="rgba(179,84,30,0.57)"/>
    </g>
    <g transform="translate(-422 -2398)">
      <circle id="Ellipse_2-197" data-name="Ellipse 2" cx="5.5" cy="5.5" r="5.5" transform="translate(701 2849)" fill="rgba(179,84,30,0.57)"/>
    </g>
    <g transform="translate(-391 -2398)">
      <circle id="Ellipse_2-198" data-name="Ellipse 2" cx="5.5" cy="5.5" r="5.5" transform="translate(701 2849)" fill="rgba(179,84,30,0.57)"/>
    </g>
    <g transform="translate(-360 -2398)">
      <circle id="Ellipse_2-199" data-name="Ellipse 2" cx="5.5" cy="5.5" r="5.5" transform="translate(701 2849)" fill="rgba(179,84,30,0.57)"/>
    </g>
    <g transform="translate(-329 -2398)">
      <circle id="Ellipse_2-200" data-name="Ellipse 2" cx="5.5" cy="5.5" r="5.5" transform="translate(701 2849)" fill="rgba(179,84,30,0.57)"/>
    </g>
    <g transform="translate(-298 -2398)">
      <circle id="Ellipse_2-201" data-name="Ellipse 2" cx="5.5" cy="5.5" r="5.5" transform="translate(701 2849)" fill="rgba(179,84,30,0.57)"/>
    </g>
    <g transform="translate(-267 -2398)">
      <circle id="Ellipse_2-202" data-name="Ellipse 2" cx="5.5" cy="5.5" r="5.5" transform="translate(701 2849)" fill="rgba(179,84,30,0.57)"/>
    </g>
    <g transform="translate(-236 -2398)">
      <circle id="Ellipse_2-203" data-name="Ellipse 2" cx="5.5" cy="5.5" r="5.5" transform="translate(701 2849)" fill="rgba(179,84,30,0.57)"/>
    </g>
    <g transform="translate(-205 -2398)">
      <circle id="Ellipse_2-204" data-name="Ellipse 2" cx="5.5" cy="5.5" r="5.5" transform="translate(701 2849)" fill="rgba(179,84,30,0.57)"/>
    </g>
    <g transform="translate(-701 -2357)">
      <circle id="Ellipse_2-205" data-name="Ellipse 2" cx="5.5" cy="5.5" r="5.5" transform="translate(701 2849)" fill="rgba(179,84,30,0.57)"/>
    </g>
    <g transform="translate(-670 -2357)">
      <circle id="Ellipse_2-206" data-name="Ellipse 2" cx="5.5" cy="5.5" r="5.5" transform="translate(701 2849)" fill="rgba(179,84,30,0.57)"/>
    </g>
    <g transform="translate(-639 -2357)">
      <circle id="Ellipse_2-207" data-name="Ellipse 2" cx="5.5" cy="5.5" r="5.5" transform="translate(701 2849)" fill="rgba(179,84,30,0.57)"/>
    </g>
    <g transform="translate(-608 -2357)">
      <circle id="Ellipse_2-208" data-name="Ellipse 2" cx="5.5" cy="5.5" r="5.5" transform="translate(701 2849)" fill="rgba(179,84,30,0.57)"/>
    </g>
    <g transform="translate(-577 -2357)">
      <circle id="Ellipse_2-209" data-name="Ellipse 2" cx="5.5" cy="5.5" r="5.5" transform="translate(701 2849)" fill="rgba(179,84,30,0.57)"/>
    </g>
    <g transform="translate(-546 -2357)">
      <circle id="Ellipse_2-210" data-name="Ellipse 2" cx="5.5" cy="5.5" r="5.5" transform="translate(701 2849)" fill="rgba(179,84,30,0.57)"/>
    </g>
    <g transform="translate(-515 -2357)">
      <circle id="Ellipse_2-211" data-name="Ellipse 2" cx="5.5" cy="5.5" r="5.5" transform="translate(701 2849)" fill="rgba(179,84,30,0.57)"/>
    </g>
    <g transform="translate(-484 -2357)">
      <circle id="Ellipse_2-212" data-name="Ellipse 2" cx="5.5" cy="5.5" r="5.5" transform="translate(701 2849)" fill="rgba(179,84,30,0.57)"/>
    </g>
    <g transform="translate(-453 -2357)">
      <circle id="Ellipse_2-213" data-name="Ellipse 2" cx="5.5" cy="5.5" r="5.5" transform="translate(701 2849)" fill="rgba(179,84,30,0.57)"/>
    </g>
    <g transform="translate(-422 -2357)">
      <circle id="Ellipse_2-214" data-name="Ellipse 2" cx="5.5" cy="5.5" r="5.5" transform="translate(701 2849)" fill="rgba(179,84,30,0.57)"/>
    </g>
    <g transform="translate(-391 -2357)">
      <circle id="Ellipse_2-215" data-name="Ellipse 2" cx="5.5" cy="5.5" r="5.5" transform="translate(701 2849)" fill="rgba(179,84,30,0.57)"/>
    </g>
    <g transform="translate(-360 -2357)">
      <circle id="Ellipse_2-216" data-name="Ellipse 2" cx="5.5" cy="5.5" r="5.5" transform="translate(701 2849)" fill="rgba(179,84,30,0.57)"/>
    </g>
    <g transform="translate(-329 -2357)">
      <circle id="Ellipse_2-217" data-name="Ellipse 2" cx="5.5" cy="5.5" r="5.5" transform="translate(701 2849)" fill="rgba(179,84,30,0.57)"/>
    </g>
    <g transform="translate(-298 -2357)">
      <circle id="Ellipse_2-218" data-name="Ellipse 2" cx="5.5" cy="5.5" r="5.5" transform="translate(701 2849)" fill="rgba(179,84,30,0.57)"/>
    </g>
    <g transform="translate(-267 -2357)">
      <circle id="Ellipse_2-219" data-name="Ellipse 2" cx="5.5" cy="5.5" r="5.5" transform="translate(701 2849)" fill="rgba(179,84,30,0.57)"/>
    </g>
    <g transform="translate(-236 -2357)">
      <circle id="Ellipse_2-220" data-name="Ellipse 2" cx="5.5" cy="5.5" r="5.5" transform="translate(701 2849)" fill="rgba(179,84,30,0.57)"/>
    </g>
    <g transform="translate(-205 -2357)">
      <circle id="Ellipse_2-221" data-name="Ellipse 2" cx="5.5" cy="5.5" r="5.5" transform="translate(701 2849)" fill="rgba(179,84,30,0.57)"/>
    </g>
    <g transform="translate(-701 -2316)">
      <circle id="Ellipse_2-222" data-name="Ellipse 2" cx="5.5" cy="5.5" r="5.5" transform="translate(701 2849)" fill="rgba(179,84,30,0.57)"/>
    </g>
    <g transform="translate(-670 -2316)">
      <circle id="Ellipse_2-223" data-name="Ellipse 2" cx="5.5" cy="5.5" r="5.5" transform="translate(701 2849)" fill="rgba(179,84,30,0.57)"/>
    </g>
    <g transform="translate(-639 -2316)">
      <circle id="Ellipse_2-224" data-name="Ellipse 2" cx="5.5" cy="5.5" r="5.5" transform="translate(701 2849)" fill="rgba(179,84,30,0.57)"/>
    </g>
    <g transform="translate(-608 -2316)">
      <circle id="Ellipse_2-225" data-name="Ellipse 2" cx="5.5" cy="5.5" r="5.5" transform="translate(701 2849)" fill="rgba(179,84,30,0.57)"/>
    </g>
    <g transform="translate(-577 -2316)">
      <circle id="Ellipse_2-226" data-name="Ellipse 2" cx="5.5" cy="5.5" r="5.5" transform="translate(701 2849)" fill="rgba(179,84,30,0.57)"/>
    </g>
    <g transform="translate(-546 -2316)">
      <circle id="Ellipse_2-227" data-name="Ellipse 2" cx="5.5" cy="5.5" r="5.5" transform="translate(701 2849)" fill="rgba(179,84,30,0.57)"/>
    </g>
    <g transform="translate(-515 -2316)">
      <circle id="Ellipse_2-228" data-name="Ellipse 2" cx="5.5" cy="5.5" r="5.5" transform="translate(701 2849)" fill="rgba(179,84,30,0.57)"/>
    </g>
    <g transform="translate(-484 -2316)">
      <circle id="Ellipse_2-229" data-name="Ellipse 2" cx="5.5" cy="5.5" r="5.5" transform="translate(701 2849)" fill="rgba(179,84,30,0.57)"/>
    </g>
    <g transform="translate(-453 -2316)">
      <circle id="Ellipse_2-230" data-name="Ellipse 2" cx="5.5" cy="5.5" r="5.5" transform="translate(701 2849)" fill="rgba(179,84,30,0.57)"/>
    </g>
    <g transform="translate(-422 -2316)">
      <circle id="Ellipse_2-231" data-name="Ellipse 2" cx="5.5" cy="5.5" r="5.5" transform="translate(701 2849)" fill="rgba(179,84,30,0.57)"/>
    </g>
    <g transform="translate(-391 -2316)">
      <circle id="Ellipse_2-232" data-name="Ellipse 2" cx="5.5" cy="5.5" r="5.5" transform="translate(701 2849)" fill="rgba(179,84,30,0.57)"/>
    </g>
    <g transform="translate(-360 -2316)">
      <circle id="Ellipse_2-233" data-name="Ellipse 2" cx="5.5" cy="5.5" r="5.5" transform="translate(701 2849)" fill="rgba(179,84,30,0.57)"/>
    </g>
    <g transform="translate(-329 -2316)">
      <circle id="Ellipse_2-234" data-name="Ellipse 2" cx="5.5" cy="5.5" r="5.5" transform="translate(701 2849)" fill="rgba(179,84,30,0.57)"/>
    </g>
    <g transform="translate(-298 -2316)">
      <circle id="Ellipse_2-235" data-name="Ellipse 2" cx="5.5" cy="5.5" r="5.5" transform="translate(701 2849)" fill="rgba(179,84,30,0.57)"/>
    </g>
    <g transform="translate(-267 -2316)">
      <circle id="Ellipse_2-236" data-name="Ellipse 2" cx="5.5" cy="5.5" r="5.5" transform="translate(701 2849)" fill="rgba(179,84,30,0.57)"/>
    </g>
    <g transform="translate(-236 -2316)">
      <circle id="Ellipse_2-237" data-name="Ellipse 2" cx="5.5" cy="5.5" r="5.5" transform="translate(701 2849)" fill="rgba(179,84,30,0.57)"/>
    </g>
    <g transform="translate(-205 -2316)">
      <circle id="Ellipse_2-238" data-name="Ellipse 2" cx="5.5" cy="5.5" r="5.5" transform="translate(701 2849)" fill="rgba(179,84,30,0.57)"/>
    </g>
  </g>
</svg>
